<svg xmlns="http://www.w3.org/2000/svg" viewBox="0 0 50 50">
    <path d="M46.051,20.001c-0.113-0.009-0.228,0.008-0.336,0.04c-2.994,0.89-7.763,1.56-8.939,0.349	c-0.142-0.471,0.675-2.333,1.648-3.787c0.306-0.405,0.766-1.192,0.407-1.912C38.729,14.482,38.404,14,37.627,14	c-1.216,0-1.811,1.107-1.979,1.793c-0.438,2.07-1.727,3.128-2.848,3.665c0.273-1.206,0.211-2.333,0.197-2.527	c-0.033-0.481-0.405-0.87-0.884-0.924c-0.488-0.063-0.929,0.24-1.07,0.701c-0.026,0.086-0.226,0.55-0.543,0.673	c-0.289,0.112-0.699-0.07-0.993-0.243c-1.056-0.62-1.564-3.183-1.511-7.615L28,9c0-0.291,0.053-0.387,0.073-0.373	C28.351,8.466,29,8.089,29,7c0-3.06-2.813-5-4-5s-4,1.94-4,5c0,1.089,0.649,1.466,0.958,1.613C21.959,8.614,22,8.71,22,9	l0.004,0.522c0.053,4.433-0.456,6.995-1.511,7.615c-0.292,0.172-0.701,0.354-0.988,0.245c-0.304-0.114-0.505-0.543-0.549-0.675	c-0.141-0.461-0.583-0.765-1.07-0.701c-0.479,0.054-0.851,0.442-0.884,0.924c-0.014,0.194-0.075,1.319,0.196,2.524	c-1.123-0.541-2.413-1.606-2.854-3.692C14.184,15.107,13.589,14,12.373,14c-0.777,0-1.102,0.482-1.205,0.69	c-0.358,0.72,0.101,1.507,0.375,1.867c1.006,1.499,1.823,3.361,1.732,3.753c-1.226,1.289-5.996,0.618-8.991-0.27	c-0.109-0.032-0.225-0.05-0.335-0.04c-0.459,0.023-1.859,0.096-2.02,1.188c-0.159,1.073,1.072,1.516,1.733,1.753	c0.646,0.231,1.483,0.503,2.407,0.802c2.201,0.712,7.313,2.366,7.929,3.336c-0.038,0.695-0.567,1.319-1.177,2.038	C12.01,30.074,11,31.266,11,33c0,4.116,1.234,7.437,3.668,9.867C18.753,46.947,24.71,47,24.999,47C25,47,25,47,25.001,47	c0.289,0,6.246-0.053,10.33-4.133C37.766,40.437,39,37.116,39,33c0-1.734-1.01-2.926-1.821-3.883	c-0.61-0.719-1.139-1.343-1.177-2.038c0.616-0.97,5.728-2.624,7.929-3.336c0.924-0.299,1.76-0.57,2.407-0.802	c0.661-0.237,1.892-0.68,1.733-1.753C47.91,20.097,46.511,20.024,46.051,20.001z M25,21.998c0,0,5,0.1,5,3.002c0,2.133-5,2-5,2	s-5,0.133-5-2C20,22.098,25,21.998,25,21.998z M25,42c0,0-9-0.134-9-8c0-2.613,1.684-4,3-4s3.701,1,6,1s4.684-1,6-1s3,1.387,3,4	C34,41.866,25,42,25,42z"/>
</svg>
